# xmcd
#
# Track frame offsets:
#	150
#	4833
#	27820
#	45854
#	73531
#	93531
#	111389
#	128175
#	143849
#	161523
#	186134
#	202510
#
# Disc length: 2918 seconds
#
# Revision: 0
# Processed by: cddbd v1.5.2PL0 Copyright (c) Steve Scherf et al.
# Submitted via: EZCDAudioConverter 8.0.2.1
#
DISCID=950b640c
DTITLE=Minh Thuận - Karo
DYEAR=2011
DGENRE=World Pop
TTITLE0=Minh Thuận - Lời giới thiệu
TTITLE1=Minh Thuận, Lê Anh Trường - Đừng yêu tôi
TTITLE2=Minh Thuận - Karo
TTITLE3=Minh Thuận - Nỗi buồn
TTITLE4=Minh Thuận - Anh đã sai
TTITLE5=Minh Thuận, Rap Soul - Đôi
TTITLE6=Minh Thuận, Lưu Anh Trường - Tạ sao
TTITLE7=Minh Thuận - Không
TTITLE8=Minh Thuận - Nhớ em mỗi đêm
TTITLE9=Minh Thuận - Khó quên
TTITLE10=Minh Thuận - Buồn
TTITLE11=Minh Thuận, Nhật Hào - Tình và đời
EXTD=
EXTT0=
EXTT1=
EXTT2=
EXTT3=
EXTT4=
EXTT5=
EXTT6=
EXTT7=
EXTT8=
EXTT9=
EXTT10=
EXTT11=
PLAYORDER=
